<svg xmlns="http://www.w3.org/2000/svg" viewBox="0 0 1200 900" width="1200" height="900" role="img" aria-label="eMERGE logo">
<rect width="100%" height="100%" fill="#fff"/>
<path d="M 1044 711 L 1036 712 L 1032 715 L 1032 717 L 1035 720 L 1038 720 L 1043 716 Z M 1044 712 L 1043 715 L 1037 720 L 1035 720 L 1032 717 L 1034 713 L 1043 711 Z M 311 711 L 301 713 L 300 718 L 303 720 L 307 719 L 310 716 Z M 311 712 L 311 714 L 308 718 L 304 720 L 300 718 L 300 715 L 302 713 L 310 711 Z M 235 711 L 227 712 L 223 715 L 223 717 L 226 720 L 228 720 L 233 717 Z M 235 712 L 234 715 L 228 720 L 226 720 L 223 717 L 223 715 L 225 713 L 234 711 Z M 403 712 L 400 709 L 397 708 L 401 710 L 404 715 L 403 720 L 398 724 L 394 725 L 388 724 L 384 721 L 383 718 L 383 720 L 386 723 L 391 725 L 398 724 L 404 718 Z M 985 704 L 983 712 L 976 718 L 966 718 L 965 717 L 966 713 L 965 718 L 966 719 L 968 718 L 971 719 L 979 717 L 984 711 Z M 789 701 L 785 702 L 782 706 L 781 717 L 783 719 L 788 719 L 792 713 L 793 706 Z M 790 702 L 792 704 L 793 708 L 791 715 L 787 719 L 783 719 L 781 717 L 782 706 L 786 702 Z M 762 701 L 758 702 L 754 706 L 753 709 L 753 716 L 757 720 L 760 720 L 766 713 L 767 708 L 766 704 Z M 762 701 L 766 705 L 766 712 L 760 720 L 757 720 L 753 716 L 754 706 L 758 702 Z M 649 701 L 644 702 L 641 705 L 639 710 L 639 715 L 643 720 L 648 719 L 652 714 L 653 706 Z M 648 701 L 652 704 L 653 710 L 651 715 L 646 720 L 643 720 L 639 715 L 639 710 L 642 704 L 644 702 Z M 496 701 L 491 702 L 486 709 L 486 716 L 490 720 L 496 718 L 499 713 L 500 707 L 499 704 Z M 495 701 L 499 704 L 500 708 L 499 713 L 494 719 L 490 720 L 486 716 L 486 710 L 488 705 L 491 702 Z M 361 701 L 365 705 L 365 710 L 365 705 L 361 701 L 357 702 L 353 709 L 353 717 L 357 720 L 360 719 L 363 716 L 364 712 L 362 717 L 357 720 L 353 716 L 353 709 L 354 706 L 358 702 Z M 285 697 L 280 697 L 274 709 L 272 711 L 272 713 L 271 714 L 270 713 L 270 716 L 279 699 L 281 697 L 284 697 L 285 700 L 270 727 L 264 734 L 259 734 L 258 733 L 258 730 L 260 728 L 261 729 L 263 728 L 266 724 L 263 701 L 255 703 L 251 710 L 249 722 L 247 724 L 245 724 L 243 722 L 244 719 L 243 722 L 245 724 L 249 723 L 251 710 L 253 706 L 257 702 L 262 702 L 266 723 L 262 728 L 259 728 L 257 732 L 258 734 L 266 733 L 284 702 Z M 1154 697 L 1150 696 L 1144 697 L 1137 704 L 1136 710 L 1137 704 L 1143 698 L 1149 696 L 1155 698 L 1159 703 L 1159 711 L 1158 712 L 1141 712 L 1141 716 L 1145 720 L 1149 719 L 1153 714 L 1156 714 L 1158 716 L 1157 718 L 1150 724 L 1147 725 L 1141 724 L 1137 720 L 1136 716 L 1138 722 L 1144 725 L 1148 725 L 1154 722 L 1158 716 L 1157 713 L 1159 712 L 1160 706 L 1159 702 Z M 1141 716 L 1142 712 L 1143 713 L 1145 712 L 1153 714 L 1150 718 L 1146 720 Z M 1051 701 L 1051 702 L 1050 699 L 1047 697 L 1040 696 L 1033 699 L 1030 702 L 1029 705 L 1034 706 L 1038 702 L 1044 702 L 1046 705 L 1044 707 L 1042 707 L 1045 707 L 1046 703 L 1042 701 L 1037 702 L 1034 706 L 1031 706 L 1029 704 L 1032 700 L 1041 696 L 1046 697 Z M 1021 697 L 1014 696 L 1007 700 L 1006 702 L 1007 709 L 1015 713 L 1018 717 L 1015 720 L 1012 720 L 1009 718 L 1008 714 L 1003 714 L 1002 717 L 1006 723 L 1011 725 L 1016 725 L 1022 722 L 1024 718 L 1023 712 L 1020 709 L 1012 705 L 1012 703 L 1014 701 L 1016 701 L 1021 706 L 1025 706 L 1026 703 L 1024 699 Z M 1014 696 L 1022 698 L 1025 701 L 1026 704 L 1024 706 L 1021 706 L 1017 701 L 1014 701 L 1011 703 L 1013 706 L 1021 710 L 1024 714 L 1024 718 L 1020 723 L 1012 725 L 1008 724 L 1003 719 L 1002 715 L 1007 714 L 1009 718 L 1012 720 L 1015 720 L 1018 718 L 1018 715 L 1010 711 L 1006 706 L 1007 700 Z M 829 697 L 835 704 L 835 711 L 834 712 L 817 712 L 816 714 L 818 712 L 827 713 L 835 711 L 835 704 L 831 698 L 825 696 L 818 698 L 814 702 L 811 708 L 811 718 L 815 723 L 819 725 L 824 725 L 828 723 L 832 719 L 833 715 L 829 714 L 822 720 L 819 719 L 817 716 L 820 720 L 822 720 L 826 718 L 829 714 L 833 715 L 832 719 L 826 724 L 820 725 L 813 721 L 811 717 L 811 708 L 814 702 L 818 698 L 825 696 Z M 793 697 L 790 696 L 785 698 L 779 697 L 777 701 L 777 704 L 777 701 L 779 697 L 782 697 L 783 699 L 789 696 L 793 697 L 798 703 L 797 716 L 791 723 L 786 725 L 782 724 L 779 721 L 777 732 L 775 734 L 773 734 L 771 732 L 773 721 L 771 730 L 772 734 L 777 733 L 778 724 L 780 722 L 784 725 L 787 725 L 791 723 L 797 716 L 798 703 Z M 766 697 L 763 696 L 756 697 L 751 701 L 748 706 L 748 709 L 749 704 L 755 698 L 760 696 L 766 697 L 771 702 L 772 705 L 771 715 L 768 720 L 763 724 L 757 725 L 752 723 L 748 719 L 747 712 L 748 719 L 755 725 L 760 725 L 765 723 L 771 715 L 772 705 L 770 700 Z M 740 697 L 735 696 L 730 697 L 724 702 L 721 710 L 722 719 L 725 723 L 729 725 L 734 725 L 738 723 L 744 716 L 742 713 L 745 711 L 745 704 L 744 701 Z M 727 716 L 727 714 L 729 712 L 730 713 L 734 712 L 736 713 L 741 712 L 742 713 L 739 714 L 732 720 Z M 739 697 L 743 700 L 745 704 L 745 711 L 744 712 L 727 712 L 726 714 L 727 717 L 731 720 L 736 718 L 739 714 L 742 714 L 744 716 L 736 724 L 733 725 L 727 724 L 723 721 L 721 716 L 722 706 L 727 699 L 731 697 Z M 653 697 L 649 696 L 642 697 L 638 700 L 634 707 L 634 718 L 638 723 L 642 725 L 646 725 L 654 721 L 657 715 L 656 718 L 651 723 L 645 725 L 640 724 L 634 718 L 635 705 L 643 697 L 647 696 L 652 697 L 658 703 L 658 713 L 659 706 L 657 701 Z M 585 697 L 581 696 L 575 697 L 571 701 L 570 704 L 571 708 L 574 711 L 580 713 L 583 716 L 580 720 L 577 720 L 573 717 L 572 714 L 567 715 L 568 720 L 575 725 L 581 725 L 585 723 L 589 717 L 587 711 L 579 707 L 576 704 L 577 702 L 581 701 L 586 706 L 590 706 L 591 704 L 589 700 Z M 581 696 L 585 697 L 590 702 L 590 705 L 586 706 L 582 701 L 578 701 L 576 703 L 577 706 L 584 709 L 588 713 L 587 721 L 583 724 L 578 725 L 571 723 L 567 718 L 567 715 L 572 714 L 575 719 L 577 720 L 582 719 L 583 716 L 580 713 L 573 710 L 571 707 L 571 701 L 574 698 Z M 560 697 L 556 696 L 550 697 L 544 703 L 542 707 L 542 718 L 547 724 L 550 725 L 557 724 L 564 717 L 564 713 L 566 710 L 566 705 L 563 699 Z M 558 713 L 559 712 L 564 713 L 563 714 Z M 558 713 L 559 715 L 555 719 L 552 720 L 547 715 L 548 713 L 554 713 L 555 712 Z M 556 696 L 560 697 L 565 702 L 566 708 L 564 712 L 548 712 L 547 713 L 548 717 L 552 720 L 555 719 L 560 714 L 564 715 L 564 717 L 557 724 L 552 725 L 546 723 L 542 718 L 542 708 L 545 702 L 549 698 Z M 537 697 L 533 696 L 527 697 L 519 705 L 518 717 L 519 720 L 523 724 L 526 725 L 532 724 L 539 717 L 539 714 L 535 713 L 528 720 L 524 717 L 524 708 L 528 702 L 533 702 L 536 707 L 539 707 L 541 705 L 541 702 Z M 536 697 L 540 701 L 541 705 L 539 707 L 537 707 L 534 702 L 530 701 L 526 704 L 523 714 L 524 718 L 527 720 L 530 719 L 535 713 L 537 713 L 539 716 L 532 724 L 528 725 L 524 724 L 519 720 L 518 717 L 519 706 L 525 698 L 531 696 Z M 497 696 L 492 696 L 487 698 L 484 701 L 481 707 L 480 712 L 481 718 L 485 723 L 490 725 L 498 723 L 503 718 L 504 714 L 502 719 L 496 724 L 490 725 L 485 723 L 481 718 L 481 707 L 483 703 L 489 697 L 496 696 L 503 700 L 505 704 L 505 712 L 506 708 L 504 701 L 500 697 Z M 397 696 L 390 697 L 386 701 L 387 709 L 395 713 L 398 716 L 396 719 L 392 720 L 387 714 L 388 717 L 392 720 L 398 718 L 398 715 L 390 711 L 386 707 L 387 700 L 394 696 L 395 697 L 400 697 L 404 700 L 406 704 L 404 706 L 401 706 L 399 702 L 393 701 L 391 704 L 394 707 L 395 707 L 391 704 L 394 701 L 398 702 L 401 706 L 405 706 L 406 704 L 405 701 L 401 697 Z M 316 698 L 306 696 L 301 698 L 296 704 L 297 706 L 301 706 L 305 702 L 309 701 L 313 703 L 312 707 L 309 707 L 313 706 L 313 703 L 310 701 L 305 702 L 301 706 L 298 706 L 297 703 L 303 697 L 307 696 L 314 697 L 319 703 L 318 711 L 316 716 L 316 722 L 314 724 L 312 724 L 310 722 L 303 725 L 298 724 L 294 719 L 294 714 L 300 708 L 303 708 L 298 709 L 294 714 L 294 719 L 298 724 L 304 725 L 309 722 L 312 724 L 316 723 L 316 716 L 319 706 L 319 703 Z M 699 704 L 700 697 L 702 693 L 713 693 L 716 696 L 715 700 L 712 703 L 707 704 L 710 704 L 715 700 L 716 698 L 715 694 L 710 692 L 702 692 Z M 1123 688 L 1118 690 L 1116 693 L 1116 696 L 1113 697 L 1112 701 L 1115 703 L 1113 708 L 1111 721 L 1116 725 L 1120 724 L 1121 720 L 1117 717 L 1119 708 L 1117 718 L 1120 719 L 1121 722 L 1117 725 L 1114 724 L 1111 720 L 1115 703 L 1112 699 L 1114 697 L 1116 697 L 1117 692 L 1120 689 L 1122 689 L 1123 690 L 1122 697 L 1124 697 L 1125 700 L 1120 703 L 1120 706 L 1120 704 L 1125 701 L 1125 697 L 1122 696 Z M 1132 687 L 1130 690 L 1130 693 L 1134 694 L 1136 692 L 1136 688 Z M 1135 687 L 1136 691 L 1132 694 L 1130 692 L 1130 690 L 1132 687 Z M 1108 687 L 1106 693 L 1110 694 L 1112 693 L 1112 688 Z M 1111 687 L 1112 692 L 1109 694 L 1106 691 L 1109 687 Z M 1091 687 L 1086 688 L 1085 690 L 1086 694 L 1089 694 L 1091 692 Z M 1086 688 L 1090 687 L 1091 692 L 1087 694 L 1085 692 Z M 1061 687 L 1059 689 L 1057 703 L 1054 713 L 1054 718 L 1052 722 L 1054 724 L 1059 722 L 1061 724 L 1066 725 L 1071 723 L 1075 719 L 1078 711 L 1078 705 L 1077 701 L 1073 697 L 1070 696 L 1065 697 L 1064 696 L 1065 688 Z M 1061 687 L 1065 688 L 1064 698 L 1069 696 L 1073 697 L 1076 700 L 1078 705 L 1078 711 L 1076 717 L 1072 722 L 1066 725 L 1064 725 L 1058 721 L 1056 724 L 1053 723 L 1059 689 Z M 1004 687 L 1000 687 L 998 689 L 999 694 L 1002 694 L 1004 692 Z M 1003 687 L 1004 691 L 1000 694 L 998 692 L 998 690 L 1000 687 Z M 966 687 L 964 692 L 959 720 L 965 689 L 967 687 L 980 687 L 984 688 L 991 696 L 991 709 L 986 718 L 983 721 L 978 723 L 982 722 L 987 717 L 991 709 L 991 696 L 989 692 L 984 688 Z M 906 687 L 901 688 L 901 693 L 902 694 L 906 693 L 907 690 Z M 903 687 L 905 687 L 907 689 L 904 694 L 901 693 L 901 689 Z M 855 687 L 858 687 L 860 689 L 860 704 L 860 688 L 854 688 L 856 723 L 861 724 L 863 722 L 874 700 L 876 723 L 883 723 L 899 688 L 895 687 L 892 690 L 882 711 L 880 688 L 875 687 L 872 690 L 863 710 L 860 712 L 861 714 L 875 687 L 878 687 L 880 689 L 881 712 L 883 711 L 893 689 L 895 687 L 898 687 L 899 690 L 881 724 L 876 723 L 875 699 L 862 723 L 857 724 L 855 719 L 854 701 Z M 811 687 L 807 687 L 805 691 L 804 701 L 802 705 L 802 710 L 799 720 L 800 724 L 804 724 L 806 720 L 807 709 L 809 705 L 810 694 L 812 690 Z M 810 687 L 812 690 L 810 694 L 806 719 L 803 724 L 800 724 L 799 721 L 804 701 L 806 689 L 808 687 Z M 717 688 L 714 687 L 697 687 L 696 688 L 692 706 L 692 711 L 696 689 L 698 687 L 714 687 L 717 688 L 721 693 L 721 701 L 718 706 L 713 709 L 698 710 L 695 723 L 690 724 L 689 722 L 691 713 L 689 723 L 690 724 L 695 724 L 697 712 L 699 710 L 710 710 L 716 708 L 721 702 L 722 696 L 721 692 Z M 634 687 L 613 687 L 611 689 L 610 699 L 608 703 L 607 713 L 605 718 L 605 724 L 610 724 L 614 708 L 631 708 L 632 703 L 630 702 L 621 702 L 619 703 L 616 702 L 615 699 L 617 693 L 634 693 L 635 691 Z M 633 687 L 635 689 L 635 691 L 633 693 L 617 693 L 615 698 L 616 703 L 631 703 L 632 706 L 630 708 L 614 708 L 612 713 L 611 722 L 609 724 L 606 724 L 605 723 L 605 718 L 607 713 L 608 703 L 610 699 L 611 689 L 613 687 Z M 518 687 L 513 688 L 512 692 L 514 694 L 518 693 L 519 689 Z M 515 687 L 517 687 L 519 689 L 517 693 L 512 692 Z M 461 687 L 458 696 L 457 706 L 460 689 L 462 687 L 464 687 L 466 689 L 464 699 L 467 697 L 472 696 L 475 697 L 478 700 L 478 708 L 475 722 L 473 724 L 469 723 L 473 703 L 471 701 L 466 702 L 462 707 L 461 714 L 463 706 L 467 702 L 471 701 L 473 704 L 469 719 L 469 723 L 470 724 L 475 723 L 478 708 L 478 700 L 477 698 L 473 696 L 465 698 L 464 697 L 466 688 Z M 385 687 L 380 687 L 378 692 L 381 694 L 377 698 L 377 700 L 380 700 L 383 697 L 385 693 Z M 384 687 L 385 688 L 385 693 L 383 697 L 380 700 L 378 700 L 377 699 L 381 694 L 379 692 L 379 689 L 381 687 Z M 217 687 L 211 688 L 197 714 L 195 710 L 193 692 L 196 716 L 198 714 L 210 690 L 213 687 L 217 687 L 219 689 L 215 704 L 212 723 L 208 724 L 206 722 L 211 700 L 199 722 L 197 724 L 194 724 L 192 722 L 192 719 L 192 723 L 197 724 L 199 722 L 209 704 L 210 706 L 208 710 L 206 723 L 208 724 L 212 723 L 219 689 Z M 442 686 L 432 688 L 428 691 L 422 701 L 422 715 L 427 722 L 433 725 L 438 725 L 445 722 L 450 717 L 451 714 L 449 718 L 443 723 L 436 725 L 431 724 L 427 722 L 423 717 L 422 702 L 425 695 L 431 689 L 439 686 L 449 689 L 453 694 L 453 698 L 452 699 L 448 698 L 448 699 L 453 699 L 453 694 L 451 691 Z M 172 671 L 174 676 L 1185 675 L 1183 669 Z M 172 672 L 1183 669 L 1185 674 Z M 748 601 L 749 620 L 752 632 L 756 641 L 762 650 L 767 655 L 779 661 L 789 662 L 780 661 L 770 657 L 760 647 L 755 639 L 751 628 L 749 619 L 749 612 L 748 611 Z M 1014 559 L 923 559 L 920 562 L 920 567 L 925 571 L 943 571 L 945 573 L 945 624 L 946 575 L 943 571 L 923 570 L 920 567 L 920 562 L 923 559 L 1014 559 L 1017 562 L 1017 567 L 1014 570 L 1002 571 L 999 574 L 997 615 L 982 636 L 970 648 L 954 657 L 941 661 L 928 662 L 942 661 L 959 655 L 974 645 L 983 635 L 998 612 L 999 575 L 1002 571 L 1012 571 L 1016 569 L 1017 562 Z M 535 534 L 532 537 L 532 641 L 533 643 L 547 645 L 571 645 L 585 642 L 597 637 L 605 630 L 610 623 L 616 608 L 617 601 L 613 616 L 608 626 L 598 636 L 585 642 L 565 645 L 564 644 L 565 643 L 564 634 L 565 616 L 563 573 L 564 549 L 569 559 L 570 567 L 569 559 L 564 548 L 556 540 L 550 537 Z M 547 644 L 548 643 L 556 643 L 557 644 L 556 645 L 548 645 Z M 533 537 L 534 538 L 534 639 L 533 640 L 532 639 L 532 538 Z M 1084 534 L 1082 536 L 1082 585 L 1082 537 L 1086 533 L 1094 534 L 1103 537 L 1113 545 L 1118 555 L 1123 577 L 1127 581 L 1123 577 L 1118 555 L 1114 546 L 1108 540 L 1101 536 L 1089 533 Z M 755 519 L 764 517 L 774 513 L 764 517 L 755 519 L 751 521 L 751 523 L 754 525 L 765 528 L 781 538 L 789 546 L 797 559 L 800 567 L 801 578 L 802 579 L 802 602 L 803 603 L 804 630 L 803 602 L 802 601 L 803 600 L 802 596 L 802 579 L 798 561 L 790 547 L 779 536 L 763 527 L 757 526 L 751 522 Z M 80 512 L 75 521 L 76 557 L 79 559 L 120 559 L 122 558 L 124 555 L 124 519 L 123 516 L 118 511 L 106 507 L 92 507 L 87 508 Z M 404 459 L 405 651 L 411 658 L 722 658 L 727 655 L 726 647 L 707 646 L 702 639 L 702 532 L 708 527 L 730 529 L 740 538 L 744 551 L 732 530 L 707 527 L 702 531 L 702 640 L 707 646 L 724 646 L 728 651 L 725 657 L 411 658 L 405 650 Z M 808 446 L 809 450 L 809 474 L 806 484 L 801 493 L 793 502 L 781 510 L 776 512 L 785 508 L 792 503 L 799 496 L 806 484 L 809 475 L 809 467 L 810 466 L 810 456 Z M 393 423 L 396 427 L 400 443 L 396 427 L 392 423 L 390 424 L 382 454 L 370 490 L 358 517 L 350 529 L 342 537 L 334 542 L 323 545 L 311 544 L 304 542 L 294 536 L 282 522 L 277 513 L 284 525 L 295 537 L 307 543 L 315 545 L 324 545 L 338 540 L 351 528 L 366 500 L 382 454 L 389 426 Z M 750 419 L 736 414 L 705 414 L 703 415 L 702 417 L 702 504 L 702 495 L 703 494 L 702 493 L 702 487 L 703 486 L 703 421 L 702 420 L 703 416 L 705 414 L 736 414 L 744 416 L 752 422 L 754 427 L 754 488 L 754 427 L 752 421 Z M 1177 468 L 1176 408 L 1177 467 L 1175 470 L 1172 471 L 1168 470 L 1165 466 L 1161 456 L 1160 450 L 1158 448 L 1158 445 L 1146 427 L 1136 419 L 1121 414 L 1084 414 L 1082 415 L 1081 419 L 1082 421 L 1082 416 L 1084 414 L 1119 414 L 1129 416 L 1137 420 L 1149 431 L 1157 443 L 1166 468 L 1170 471 L 1173 471 Z M 1011 402 L 1172 402 L 1175 406 L 1173 402 L 1009 404 L 1010 413 L 1024 413 L 1030 419 L 1030 642 L 1010 645 L 1007 655 L 1180 656 L 1185 587 L 1180 573 L 1174 578 L 1160 623 L 1145 638 L 1122 645 L 1085 645 L 1081 630 L 1084 645 L 1122 645 L 1147 637 L 1160 623 L 1174 578 L 1180 573 L 1185 580 L 1184 637 L 1178 657 L 1007 655 L 1009 646 L 1030 642 L 1030 419 L 1025 413 L 1011 413 Z M 985 402 L 967 413 L 933 397 L 892 402 L 855 430 L 828 478 L 819 522 L 825 578 L 853 630 L 891 659 L 911 662 L 889 658 L 867 644 L 844 618 L 829 589 L 819 545 L 829 476 L 852 434 L 890 403 L 924 396 L 966 413 L 980 402 L 988 406 L 985 476 L 977 472 L 955 425 L 935 410 L 905 412 L 885 438 L 880 466 L 883 622 L 895 646 L 925 650 L 897 647 L 883 622 L 883 446 L 901 415 L 931 409 L 953 423 L 977 472 L 985 476 Z M 273 344 L 278 344 L 283 349 L 288 360 L 307 428 L 303 410 L 300 403 L 300 399 L 298 396 L 292 372 L 289 366 L 289 363 L 285 352 L 280 345 Z M 250 344 L 219 359 L 192 399 L 158 392 L 127 355 L 100 374 L 76 432 L 71 500 L 31 527 L 16 556 L 19 607 L 47 641 L 91 656 L 230 656 L 232 476 L 245 423 L 250 434 L 247 423 L 232 472 L 228 657 L 176 656 L 176 567 L 76 571 L 76 629 L 87 642 L 135 640 L 157 624 L 169 603 L 176 604 L 153 641 L 112 656 L 71 652 L 37 633 L 18 604 L 14 574 L 32 526 L 62 505 L 90 496 L 121 497 L 150 510 L 168 529 L 176 553 L 176 467 L 185 417 L 209 370 L 233 349 Z M 175 612 L 176 613 L 176 620 L 175 621 L 174 620 L 174 613 Z M 175 581 L 176 582 L 176 601 L 175 602 L 174 601 L 174 582 Z M 175 466 L 176 467 L 176 473 L 175 474 L 174 473 L 174 467 Z M 396 343 L 386 341 L 358 342 L 351 352 L 348 368 L 343 381 L 343 385 L 340 392 L 339 399 L 343 382 L 348 368 L 350 356 L 353 348 L 357 343 L 365 341 L 385 341 L 386 342 Z M 398 344 L 429 369 L 455 427 L 465 644 L 479 641 L 479 417 L 461 414 L 459 402 L 625 404 L 622 471 L 586 419 L 533 417 L 536 519 L 560 509 L 577 474 L 563 504 L 562 414 L 590 422 L 621 471 L 626 411 L 651 416 L 647 645 L 633 642 L 635 577 L 624 576 L 635 577 L 635 645 L 651 640 L 651 416 L 630 413 L 627 404 L 767 403 L 794 419 L 807 444 L 789 414 L 763 402 L 561 401 L 542 355 L 524 335 L 511 338 L 495 364 L 470 379 L 448 371 L 423 339 Z M 478 635 L 479 636 L 478 641 L 477 640 Z M 463 523 L 464 524 L 464 640 L 463 641 L 462 640 L 462 524 Z M 478 419 L 479 420 L 479 634 L 478 635 L 477 634 L 477 420 Z M 535 416 L 536 415 L 552 415 L 553 416 L 552 417 L 536 417 Z M 469 416 L 470 415 L 476 415 L 477 416 L 476 417 L 470 417 Z M 466 399 L 467 398 L 538 398 L 539 399 L 538 400 L 467 400 Z M 170 223 L 160 227 L 153 232 L 141 246 L 135 258 L 130 275 L 128 300 L 129 301 L 129 313 L 133 329 L 142 348 L 151 359 L 156 363 L 172 370 L 178 370 L 179 369 L 186 369 L 196 365 L 213 348 L 221 332 L 225 319 L 227 292 L 226 291 L 225 274 L 219 255 L 209 239 L 202 232 L 193 226 L 185 223 Z M 463 216 L 452 219 L 443 225 L 430 241 L 426 253 L 424 255 L 423 264 L 421 269 L 421 291 L 425 309 L 434 327 L 446 339 L 453 343 L 456 343 L 458 345 L 463 346 L 473 346 L 481 344 L 487 341 L 500 329 L 508 316 L 511 305 L 513 302 L 513 296 L 515 288 L 515 274 L 514 273 L 513 260 L 509 248 L 503 237 L 497 229 L 490 223 L 479 217 Z M 326 165 L 333 165 L 341 167 L 350 171 L 359 177 L 372 191 L 379 202 L 385 216 L 390 241 L 390 262 L 385 287 L 379 300 L 386 284 L 386 280 L 389 271 L 389 263 L 390 262 L 390 241 L 389 240 L 388 226 L 386 223 L 385 216 L 381 206 L 373 192 L 359 177 L 344 168 L 334 165 Z M 315 165 L 305 168 L 289 178 L 277 191 L 269 204 L 260 232 L 260 270 L 269 299 L 277 312 L 289 325 L 299 332 L 311 337 L 334 338 L 344 335 L 359 326 L 369 316 L 378 302 L 367 318 L 350 332 L 333 338 L 311 337 L 293 328 L 278 313 L 264 286 L 259 260 L 261 228 L 272 199 L 283 184 L 296 173 L 311 166 L 324 165 Z" fill="#efc4bd" fill-rule="evenodd"/>
<path d="M 966 808 L 955 808 L 958 809 L 960 813 L 953 831 L 951 830 L 944 814 L 944 810 L 947 809 L 947 808 L 929 808 L 933 812 L 948 846 L 944 855 L 941 858 L 939 857 L 937 851 L 935 850 L 932 851 L 930 855 L 933 860 L 939 861 L 945 856 L 962 812 Z M 775 808 L 779 811 L 779 841 L 775 843 L 793 843 L 789 840 L 789 808 Z M 394 808 L 383 808 L 386 809 L 388 813 L 381 831 L 379 830 L 372 814 L 372 810 L 375 809 L 375 808 L 357 808 L 361 812 L 376 846 L 372 855 L 369 858 L 367 857 L 365 851 L 363 850 L 360 851 L 358 855 L 361 860 L 367 861 L 373 856 L 390 812 Z M 282 808 L 285 809 L 287 812 L 287 839 L 284 843 L 282 843 L 301 843 L 299 843 L 297 841 L 297 808 Z M 924 807 L 918 808 L 911 816 L 910 815 L 910 808 L 896 808 L 900 811 L 900 841 L 898 843 L 896 843 L 915 843 L 913 843 L 910 840 L 910 822 L 912 817 L 915 814 L 918 814 L 923 817 L 926 815 L 926 809 Z M 869 807 L 864 809 L 858 816 L 856 822 L 856 830 L 858 836 L 863 842 L 867 844 L 874 845 L 881 843 L 887 837 L 889 832 L 889 820 L 885 812 L 881 809 L 876 807 Z M 871 809 L 875 809 L 879 816 L 879 834 L 878 839 L 874 843 L 871 843 L 867 838 L 867 814 Z M 820 807 L 817 809 L 812 807 L 806 807 L 800 811 L 798 817 L 799 822 L 803 827 L 814 835 L 815 840 L 813 842 L 809 843 L 802 838 L 799 832 L 799 844 L 805 843 L 812 845 L 816 844 L 820 841 L 822 837 L 821 827 L 809 818 L 805 813 L 808 809 L 812 809 L 818 814 L 820 818 Z M 640 807 L 635 809 L 629 816 L 627 822 L 627 830 L 629 836 L 634 842 L 638 844 L 645 845 L 652 843 L 658 837 L 660 832 L 660 820 L 656 812 L 652 809 L 647 807 Z M 642 809 L 646 809 L 650 816 L 650 834 L 649 839 L 645 843 L 642 843 L 638 838 L 638 814 Z M 598 807 L 595 809 L 590 807 L 584 807 L 578 811 L 576 817 L 577 822 L 581 827 L 592 835 L 593 840 L 591 842 L 587 843 L 580 838 L 577 832 L 577 844 L 583 843 L 590 845 L 594 844 L 598 841 L 600 837 L 599 827 L 587 818 L 583 813 L 586 809 L 590 809 L 596 814 L 598 818 Z M 570 808 L 568 807 L 562 808 L 556 815 L 554 814 L 554 808 L 541 808 L 545 812 L 545 839 L 541 843 L 559 843 L 557 843 L 555 841 L 555 836 L 554 835 L 555 820 L 559 814 L 562 814 L 567 817 L 571 814 Z M 506 810 L 502 815 L 502 818 L 504 821 L 507 822 L 512 819 L 512 816 L 509 812 L 513 809 L 517 809 L 520 812 L 521 820 L 507 828 L 502 833 L 501 836 L 502 841 L 506 844 L 511 844 L 520 839 L 524 844 L 532 843 L 535 839 L 532 840 L 530 837 L 530 813 L 528 810 L 522 807 L 514 807 Z M 520 824 L 521 825 L 521 835 L 516 839 L 513 838 L 511 835 L 511 832 L 518 824 Z M 478 807 L 475 808 L 469 813 L 466 819 L 465 829 L 466 834 L 471 842 L 475 844 L 482 845 L 488 843 L 492 839 L 494 834 L 491 838 L 487 840 L 484 840 L 477 834 L 475 829 L 475 825 L 476 824 L 495 824 L 492 813 L 487 808 Z M 479 809 L 483 809 L 485 811 L 486 814 L 486 821 L 485 822 L 476 822 L 475 821 L 475 814 Z M 842 795 L 837 802 L 828 810 L 828 811 L 832 812 L 833 839 L 838 844 L 844 844 L 848 842 L 851 838 L 850 837 L 846 841 L 842 837 L 842 812 L 843 811 L 851 811 L 851 808 L 843 808 L 842 807 Z M 346 795 L 331 810 L 331 811 L 336 812 L 336 838 L 342 844 L 348 844 L 354 839 L 354 837 L 349 841 L 346 838 L 346 812 L 355 810 L 355 808 L 347 808 L 346 807 Z M 712 792 L 716 792 L 720 796 L 720 839 L 718 842 L 712 843 L 739 843 L 735 843 L 732 840 L 732 819 L 733 818 L 750 818 L 751 819 L 751 840 L 749 842 L 747 841 L 746 843 L 744 843 L 770 843 L 766 843 L 763 840 L 763 796 L 765 793 L 770 792 L 744 792 L 747 792 L 751 795 L 751 815 L 750 816 L 733 816 L 732 815 L 732 795 L 735 792 L 739 792 Z M 414 792 L 417 793 L 420 796 L 436 825 L 436 838 L 435 841 L 432 843 L 427 843 L 456 843 L 451 843 L 448 841 L 447 838 L 447 822 L 463 796 L 466 793 L 469 792 L 454 792 L 458 793 L 460 796 L 449 816 L 446 819 L 433 796 L 433 794 L 435 792 L 438 792 Z M 234 792 L 239 793 L 241 796 L 241 839 L 238 843 L 234 843 L 260 843 L 256 843 L 253 840 L 253 819 L 254 818 L 260 819 L 265 824 L 267 831 L 267 805 L 265 811 L 260 816 L 254 816 L 253 815 L 253 795 L 254 794 L 267 794 L 270 795 L 275 800 L 277 806 L 277 792 Z M 781 791 L 779 793 L 780 800 L 787 801 L 790 797 L 789 793 L 785 790 Z M 694 792 L 687 790 L 677 793 L 672 800 L 672 807 L 667 808 L 667 811 L 672 812 L 672 840 L 669 843 L 667 843 L 687 843 L 682 841 L 682 812 L 687 811 L 687 808 L 682 807 L 682 794 L 684 792 L 686 792 L 688 799 L 694 799 L 696 796 Z M 333 792 L 326 790 L 316 793 L 311 800 L 311 807 L 306 808 L 306 811 L 311 812 L 311 840 L 308 843 L 306 843 L 326 843 L 321 841 L 321 812 L 326 811 L 326 808 L 321 807 L 321 794 L 323 792 L 325 792 L 327 799 L 333 799 L 335 796 Z M 291 790 L 287 793 L 286 797 L 289 801 L 294 801 L 297 798 L 297 794 L 295 791 Z M 1170 698 L 1166 702 L 1166 707 L 1169 710 L 1176 713 L 1178 715 L 1178 717 L 1174 721 L 1168 720 L 1165 715 L 1162 715 L 1162 717 L 1168 723 L 1176 723 L 1181 719 L 1181 713 L 1178 710 L 1171 707 L 1169 705 L 1169 702 L 1172 700 L 1176 700 L 1180 705 L 1182 705 L 1183 703 L 1179 698 Z M 1145 698 L 1138 705 L 1137 717 L 1138 720 L 1142 723 L 1150 723 L 1156 718 L 1156 715 L 1154 715 L 1149 720 L 1145 721 L 1141 718 L 1140 712 L 1141 711 L 1158 711 L 1158 703 L 1153 698 Z M 1141 706 L 1147 700 L 1151 700 L 1155 704 L 1155 707 L 1153 709 L 1143 709 Z M 1132 698 L 1129 701 L 1125 721 L 1126 723 L 1129 721 L 1133 701 Z M 1109 698 L 1107 698 L 1105 702 L 1105 707 L 1101 722 L 1102 723 L 1105 722 Z M 1088 698 L 1086 698 L 1084 702 L 1082 715 L 1080 720 L 1081 723 L 1084 722 L 1084 717 L 1087 707 Z M 1037 698 L 1031 703 L 1031 705 L 1033 705 L 1039 700 L 1043 700 L 1047 703 L 1047 706 L 1042 709 L 1031 710 L 1028 714 L 1028 720 L 1031 723 L 1039 723 L 1041 721 L 1047 723 L 1047 717 L 1049 713 L 1050 702 L 1046 698 Z M 1045 711 L 1044 716 L 1040 720 L 1035 721 L 1031 718 L 1031 715 L 1034 712 L 1042 710 Z M 1011 698 L 1008 701 L 1007 706 L 1009 709 L 1016 712 L 1020 717 L 1017 720 L 1012 721 L 1008 718 L 1007 715 L 1003 716 L 1005 720 L 1009 723 L 1018 723 L 1022 720 L 1023 715 L 1019 710 L 1012 707 L 1010 703 L 1014 700 L 1017 700 L 1022 705 L 1025 704 L 1023 700 L 1020 698 Z M 1000 698 L 997 700 L 997 705 L 993 720 L 994 723 L 997 721 L 997 716 L 1001 701 Z M 903 698 L 900 699 L 899 707 L 897 712 L 896 723 L 899 722 L 899 718 L 903 703 Z M 828 698 L 821 698 L 817 700 L 813 706 L 812 717 L 814 721 L 817 723 L 825 723 L 832 717 L 831 715 L 829 715 L 825 720 L 820 721 L 815 715 L 815 713 L 817 711 L 833 711 L 834 710 L 834 705 L 832 701 Z M 816 707 L 823 700 L 828 701 L 831 706 L 829 709 L 818 709 Z M 794 699 L 792 698 L 786 698 L 784 700 L 782 698 L 779 699 L 773 726 L 773 732 L 774 733 L 776 731 L 777 723 L 779 720 L 782 723 L 789 723 L 795 717 L 797 711 L 797 704 Z M 789 700 L 794 705 L 794 710 L 791 717 L 788 720 L 784 721 L 780 717 L 779 711 L 782 704 L 785 701 Z M 757 698 L 751 703 L 749 707 L 748 715 L 752 722 L 762 723 L 767 720 L 769 717 L 771 706 L 770 702 L 767 699 Z M 763 700 L 767 704 L 768 707 L 767 713 L 763 719 L 760 721 L 756 721 L 752 717 L 752 708 L 756 702 L 759 700 Z M 731 698 L 724 704 L 722 715 L 723 719 L 727 723 L 736 723 L 741 719 L 742 717 L 741 715 L 735 720 L 730 721 L 726 717 L 725 713 L 727 711 L 743 711 L 744 710 L 744 704 L 739 698 Z M 727 708 L 728 704 L 733 700 L 738 701 L 741 705 L 741 707 L 739 709 L 728 709 Z M 678 698 L 673 698 L 671 700 L 669 700 L 668 698 L 665 699 L 661 723 L 664 722 L 666 710 L 669 704 L 673 701 L 677 701 Z M 643 698 L 638 702 L 635 708 L 635 717 L 640 723 L 649 723 L 656 716 L 657 704 L 655 700 L 652 698 Z M 649 700 L 653 703 L 654 711 L 652 716 L 647 721 L 643 721 L 638 716 L 638 710 L 640 705 L 644 701 Z M 576 698 L 572 702 L 572 707 L 575 710 L 582 713 L 584 715 L 584 718 L 580 721 L 576 721 L 572 717 L 572 715 L 568 715 L 568 717 L 573 723 L 583 723 L 587 719 L 587 713 L 584 710 L 577 707 L 575 705 L 575 703 L 578 700 L 582 700 L 587 705 L 589 705 L 589 702 L 585 698 Z M 551 698 L 546 702 L 544 706 L 543 717 L 548 723 L 556 723 L 563 716 L 560 715 L 557 719 L 551 721 L 546 716 L 546 713 L 548 711 L 564 711 L 564 703 L 559 698 Z M 547 706 L 552 701 L 557 700 L 561 704 L 562 707 L 559 709 L 549 709 Z M 536 698 L 527 698 L 521 704 L 519 710 L 519 717 L 522 722 L 531 723 L 537 718 L 538 715 L 536 714 L 532 719 L 527 721 L 523 718 L 522 715 L 523 707 L 528 701 L 532 700 L 537 705 L 540 704 L 539 701 Z M 515 698 L 512 699 L 507 722 L 508 723 L 511 722 L 511 718 L 515 703 Z M 490 698 L 483 705 L 482 718 L 487 723 L 495 723 L 499 721 L 503 715 L 504 704 L 499 698 Z M 496 700 L 500 703 L 501 710 L 498 717 L 495 720 L 490 721 L 485 716 L 485 709 L 489 702 L 492 700 Z M 391 698 L 388 700 L 387 706 L 390 710 L 396 712 L 399 715 L 399 718 L 395 721 L 392 721 L 387 717 L 387 715 L 383 716 L 384 719 L 389 723 L 398 723 L 402 719 L 403 716 L 402 713 L 399 710 L 392 707 L 390 705 L 390 703 L 393 700 L 397 700 L 403 705 L 404 702 L 400 698 Z M 326 698 L 321 722 L 322 723 L 325 722 L 326 713 L 329 705 L 333 701 L 338 700 L 341 703 L 337 720 L 337 723 L 339 723 L 341 720 L 344 701 L 341 698 L 334 698 L 332 700 L 330 700 L 329 698 Z M 303 698 L 298 703 L 299 705 L 302 704 L 306 700 L 312 701 L 315 705 L 313 708 L 301 709 L 297 711 L 295 715 L 295 718 L 297 722 L 299 723 L 306 723 L 309 721 L 314 723 L 315 722 L 314 719 L 317 710 L 317 701 L 313 698 Z M 311 710 L 313 712 L 312 715 L 307 720 L 302 721 L 299 718 L 299 714 L 301 712 Z M 284 698 L 280 699 L 276 706 L 276 708 L 270 717 L 268 714 L 267 699 L 266 698 L 257 698 L 254 700 L 252 698 L 250 698 L 245 722 L 246 723 L 248 722 L 250 710 L 253 704 L 256 701 L 261 701 L 262 699 L 264 701 L 267 724 L 262 730 L 259 730 L 259 733 L 265 732 L 269 727 Z M 227 698 L 222 702 L 221 704 L 222 705 L 224 705 L 230 700 L 233 700 L 238 703 L 238 706 L 233 709 L 222 710 L 219 713 L 219 720 L 222 723 L 230 723 L 232 721 L 238 723 L 238 717 L 241 708 L 241 702 L 237 698 Z M 236 711 L 235 716 L 231 720 L 226 721 L 222 718 L 222 715 L 224 712 L 233 710 Z M 1122 690 L 1120 690 L 1118 692 L 1117 697 L 1113 699 L 1116 702 L 1113 716 L 1113 722 L 1114 723 L 1119 723 L 1120 722 L 1116 719 L 1119 703 L 1122 700 L 1124 700 L 1120 696 Z M 916 690 L 913 691 L 912 696 L 910 698 L 908 698 L 908 700 L 910 702 L 907 721 L 909 723 L 914 723 L 914 721 L 910 717 L 913 707 L 913 703 L 916 700 L 919 699 L 915 697 Z M 1135 689 L 1133 688 L 1131 692 L 1134 692 Z M 1110 688 L 1108 689 L 1108 692 L 1111 692 Z M 1100 688 L 1097 689 L 1093 712 L 1090 722 L 1091 723 L 1094 722 L 1097 704 L 1099 699 Z M 1090 689 L 1088 688 L 1086 692 L 1089 692 Z M 1063 688 L 1060 690 L 1059 699 L 1054 720 L 1055 723 L 1058 720 L 1062 723 L 1068 723 L 1074 718 L 1076 714 L 1076 702 L 1072 698 L 1066 698 L 1065 699 L 1062 698 L 1064 692 Z M 1069 700 L 1073 704 L 1073 713 L 1068 720 L 1064 721 L 1059 717 L 1059 709 L 1061 705 L 1066 700 Z M 1003 689 L 1001 688 L 999 692 L 1002 692 Z M 985 690 L 983 689 L 972 689 L 971 688 L 970 689 L 968 688 L 966 690 L 960 723 L 979 722 L 987 715 L 990 708 L 990 697 Z M 983 693 L 985 695 L 987 701 L 984 713 L 977 719 L 966 720 L 964 718 L 966 711 L 969 693 L 971 691 L 978 691 Z M 927 688 L 924 696 L 923 706 L 919 722 L 920 723 L 923 722 L 923 717 L 926 706 L 931 701 L 936 700 L 938 702 L 938 709 L 936 714 L 935 722 L 937 723 L 940 715 L 942 702 L 939 698 L 932 698 L 930 700 L 928 700 L 927 698 L 929 689 Z M 904 688 L 902 689 L 902 692 L 905 692 Z M 856 688 L 855 689 L 855 696 L 856 697 L 857 722 L 860 723 L 862 721 L 873 700 L 873 698 L 875 697 L 876 698 L 876 709 L 877 710 L 877 722 L 881 723 L 898 689 L 896 688 L 894 689 L 882 714 L 880 712 L 879 689 L 877 688 L 874 689 L 861 715 L 859 713 L 859 689 Z M 809 688 L 807 689 L 805 702 L 800 721 L 801 723 L 804 722 L 805 713 L 810 693 Z M 717 689 L 712 689 L 711 688 L 710 689 L 709 688 L 704 688 L 703 689 L 698 688 L 697 689 L 693 712 L 691 717 L 691 723 L 694 723 L 696 711 L 699 708 L 712 708 L 715 707 L 719 703 L 720 693 Z M 698 704 L 699 696 L 702 691 L 711 691 L 714 692 L 717 695 L 716 701 L 711 705 L 700 706 Z M 633 688 L 628 689 L 626 688 L 615 688 L 612 690 L 612 695 L 609 705 L 606 723 L 610 722 L 611 712 L 614 707 L 630 707 L 631 706 L 631 704 L 615 704 L 614 703 L 615 694 L 617 692 L 632 692 L 634 690 Z M 516 688 L 514 689 L 514 692 L 517 692 Z M 463 688 L 461 689 L 458 708 L 455 718 L 455 723 L 458 722 L 459 714 L 462 705 L 468 700 L 471 700 L 474 703 L 470 721 L 471 723 L 473 723 L 477 707 L 477 701 L 475 698 L 468 698 L 464 700 L 463 699 L 464 689 Z M 447 689 L 436 688 L 431 690 L 427 694 L 423 703 L 423 714 L 429 722 L 431 723 L 441 723 L 449 716 L 450 712 L 448 711 L 441 719 L 433 720 L 428 716 L 426 711 L 428 700 L 433 693 L 437 691 L 444 691 L 448 695 L 449 698 L 452 698 L 451 693 Z M 383 688 L 380 689 L 380 692 L 382 694 L 379 699 L 383 695 L 384 692 Z M 372 688 L 370 689 L 369 696 L 367 700 L 364 698 L 356 698 L 350 704 L 348 715 L 349 719 L 353 723 L 359 723 L 362 721 L 364 723 L 367 722 L 370 703 L 373 693 Z M 362 700 L 366 704 L 366 711 L 364 716 L 360 720 L 357 721 L 352 717 L 352 708 L 357 701 Z M 293 688 L 290 690 L 288 705 L 284 720 L 285 723 L 288 720 L 288 715 L 290 711 L 290 706 L 294 690 Z M 187 688 L 185 691 L 185 696 L 179 722 L 180 723 L 183 722 L 188 698 L 191 705 L 191 711 L 194 723 L 197 723 L 208 702 L 211 699 L 212 700 L 207 722 L 210 723 L 212 719 L 217 689 L 216 688 L 212 689 L 198 716 L 196 717 L 194 711 L 191 689 Z M 1012 403 L 1011 412 L 1025 412 L 1031 418 L 1031 643 L 1011 646 L 1008 654 L 1181 654 L 1181 575 L 1175 579 L 1164 618 L 1144 640 L 1111 647 L 1084 646 L 1080 641 L 1081 536 L 1090 532 L 1107 538 L 1117 549 L 1126 580 L 1132 579 L 1131 475 L 1124 477 L 1118 501 L 1106 515 L 1093 520 L 1081 517 L 1081 415 L 1114 412 L 1136 418 L 1152 433 L 1172 470 L 1176 467 L 1174 405 Z M 917 397 L 881 409 L 850 438 L 827 486 L 820 542 L 832 593 L 859 635 L 887 656 L 905 661 L 934 661 L 964 651 L 984 632 L 997 610 L 998 574 L 1001 570 L 1015 568 L 1016 563 L 1013 560 L 922 561 L 922 568 L 941 569 L 947 574 L 945 633 L 936 646 L 923 652 L 903 651 L 887 639 L 879 604 L 879 463 L 888 429 L 909 409 L 935 409 L 960 430 L 979 473 L 987 472 L 986 405 L 980 403 L 965 414 L 941 401 Z M 16 567 L 41 635 L 112 655 L 152 641 L 175 604 L 135 641 L 87 643 L 75 571 L 176 566 L 177 656 L 228 656 L 242 424 L 286 526 L 327 543 L 355 520 L 394 422 L 410 656 L 724 656 L 701 641 L 706 526 L 744 543 L 769 655 L 831 649 L 804 636 L 794 555 L 750 523 L 801 491 L 805 439 L 781 410 L 628 404 L 652 416 L 648 646 L 632 643 L 630 574 L 600 636 L 531 641 L 531 537 L 556 539 L 582 579 L 582 476 L 556 514 L 532 517 L 532 417 L 586 418 L 624 469 L 624 404 L 461 402 L 480 417 L 480 641 L 465 645 L 454 427 L 424 364 L 383 342 L 355 347 L 319 463 L 279 346 L 240 347 L 211 369 L 182 434 L 176 554 L 142 506 L 90 497 L 43 517 Z M 80 511 L 87 507 L 92 506 L 106 506 L 118 510 L 124 516 L 125 519 L 125 555 L 122 559 L 120 560 L 79 560 L 75 557 L 74 521 L 76 516 Z M 707 412 L 732 412 L 742 414 L 749 417 L 753 421 L 755 426 L 755 431 L 756 432 L 756 482 L 755 483 L 755 490 L 751 503 L 744 510 L 737 513 L 706 515 L 700 509 L 700 504 L 701 503 L 701 417 L 704 413 Z M 317 166 L 306 169 L 292 177 L 275 196 L 265 217 L 262 229 L 260 258 L 262 274 L 267 291 L 280 314 L 291 325 L 306 334 L 318 337 L 332 337 L 343 334 L 357 326 L 365 319 L 376 304 L 381 294 L 387 275 L 389 243 L 387 228 L 381 209 L 376 199 L 365 184 L 356 176 L 343 169 L 332 166 Z M 319 186 L 328 186 L 337 189 L 350 199 L 361 216 L 365 227 L 368 243 L 367 268 L 362 285 L 353 301 L 340 313 L 331 317 L 316 317 L 301 309 L 295 303 L 288 293 L 282 279 L 281 271 L 279 266 L 279 256 L 278 255 L 279 238 L 284 219 L 293 203 L 303 193 L 314 187 Z" fill="#761d20" fill-rule="evenodd"/>
</svg>